<svg xmlns="http://www.w3.org/2000/svg" width="530.877" height="680.569"><path d="M253.007 735.011c-14.955-2.692-26.677-11.598-32.937-25.025-3.26-6.991-3.864-10.644-4.035-24.384l-.156-12.552-1.986-2.458c-1.092-1.352-4.971-4.474-8.621-6.938-14.567-9.834-20.952-19.332-22.986-34.192-3.337-24.37 16.316-47.453 40.354-47.397 12.92.03 26.982 6.585 39.639 18.477 8.89 8.352 2.216 10.702 75.2-26.488a6985.707 6985.707 0 0 1 28.372-14.38c5.748-2.888 10.356-5.327 10.24-5.421-.117-.094-11.732-6.01-25.812-13.145-14.08-7.135-36.544-18.522-49.92-25.304-30.73-15.582-29.964-15.452-39.229-6.656-28.044 26.624-65.59 21.645-76.652-10.165-7.231-20.793.12-40.028 20.521-53.693 10.937-7.326 11.212-7.915 11.17-23.944-.032-12.803 1.045-17.981 5.336-25.656 14.234-25.451 49.001-30.057 68.258-9.04 9.257 10.102 13.126 26.14 10.921 45.277-1.475 12.81-10.297 6.966 78.075 51.714 19.536 9.892 42.94 21.754 52.007 26.36l16.488 8.373 17.752-9.008c9.764-4.954 33.449-16.961 52.633-26.681 86.212-43.683 77.704-37.947 76.16-51.353-3.366-29.22 7.346-49.221 30.4-56.76 4.93-1.613 19.065-1.102 24.534.885 14.044 5.104 24.824 16.738 28.65 30.917.783 2.906 1.018 6.548.967 14.975-.1 16.032.075 16.408 10.98 23.751 14.219 9.574 20.878 19.478 22.922 34.09 3.706 26.49-19.623 50.726-45.425 47.193-12.214-1.672-22.176-6.969-34.977-18.595-7.82-7.103-8.115-7.05-33.891 6.074a28073.24 28073.24 0 0 1-49.92 25.327c-16.192 8.194-29.539 14.977-29.659 15.074-.12.097 4.488 2.534 10.24 5.417 12.944 6.488 56.09 28.352 75.382 38.2 19.81 10.113 20.115 10.128 29.777 1.455 19.575-17.57 38.502-21.801 56.322-12.589 29.727 15.37 30.087 56.81.658 75.77-12.06 7.769-12.496 8.621-12.418 24.265.063 12.802-.476 15.834-4.233 23.8-7.827 16.594-25.774 26.702-43.509 24.504-26.615-3.299-41.026-26.433-36.7-58.92.896-6.737.608-8.06-2.488-11.408-2.517-2.723-.953-1.895-62.252-32.937a82008.013 82008.013 0 0 1-52.636-26.688l-29.276-14.858-29.284 14.86a192373.11 192373.11 0 0 0-47.844 24.287 66780.268 66780.268 0 0 1-41.6 21.103c-29.684 15.044-29.22 14.63-27.948 24.91 3.766 30.422-7.186 51.858-29.812 58.35-5.112 1.467-13.283 2.031-17.752 1.227zm177.272-323.575c-12.854-1.233-17.814-1.866-25.28-3.224-105.396-19.181-169.27-101.862-142.365-184.283 1.484-4.546 1.585-5.453.99-8.908-7.693-44.701-8.278-97.793-1.39-126.149 4.33-17.821 13.32-32.859 20.268-33.9 10.626-1.594 40.862 9.173 61.875 22.035 2.379 1.456 4.47 2.647 4.647 2.647 2.854 0 35.416 24.058 46.138 34.089l3.283 3.07 3.117-.7c23.588-5.301 59.862-5.578 87.905-.67l6.708 1.173 4.172-3.836c38.493-35.39 104.39-66.882 116.187-55.526 7.043 6.779 12.509 18.05 15.968 32.93 3.56 15.314 4.445 25.137 4.442 49.31-.003 25.004-1.35 43.21-5.116 69.16-1.47 10.13-1.513 11.09-.592 13.295 5.44 13.017 8.11 38.426 5.797 55.145-9.514 68.759-73.022 121.41-160.674 133.206-6.658.896-40.01 1.718-46.08 1.136zm-56.846-100.14c2.753-.373 7.49-1.252 10.528-1.955l5.522-1.277.39-2.365c1.7-10.281-1.615-27.794-7.035-37.158-11.582-20.012-35.646-28.397-62.527-21.789-6.71 1.65-6.832 1.832-6.832 10.122 0 39.487 22.1 59.547 59.954 54.422zm174.56-.868c21.519-5.995 33.945-26.744 32.911-54.955-.266-7.284-.145-7.125-6.644-8.74-30.839-7.667-57.79 4.883-66.579 31.001-2.865 8.514-4.128 19.75-3.08 27.397l.403 2.935 5.837 1.324c12.42 2.815 29.1 3.281 37.151 1.038z" style="fill:#999" transform="translate(-181.765 -54.814)"/></svg>